Coordinates
version=1
nRows=11
nColumns=36
inDegrees=yes

Units are S.I. units (second, meters, Newtons, ...)
If the header above contains a line with 'inDegrees', this indicates whether rotational values are in degrees (yes) or radians (no).

endheader
time	pelvis_tilt	pelvis_list	pelvis_rotation	pelvis_tx	pelvis_ty	pelvis_tz	hip_flexion_r	hip_adduction_r	hip_rotation_r	knee_angle_r	knee_angle_r_beta	ankle_angle_r	subtalar_angle_r	mtp_angle_r	hip_flexion_l	hip_adduction_l	hip_rotation_l	knee_angle_l	knee_angle_l_beta	ankle_angle_l	subtalar_angle_l	mtp_angle_l	lumbar_extension	lumbar_bending	lumbar_rotation	arm_flex_r	arm_add_r	arm_rot_r	elbow_flex_r	pro_sup_r	arm_flex_l	arm_add_l	arm_rot_l	elbow_flex_l	pro_sup_l
      3.50000000	      3.14740952	      1.80186058	     -1.17516457	      0.38836226	      0.89730919	      0.09901461	     12.76747494	      2.69563903	      1.91524531	     25.06928212	      0.43754151	     26.67391029	     -6.98589434	     -7.49999987	     39.08051269	     -4.41393127	      4.87473553	     19.80654596	      0.34568944	     -8.85355516	    -10.37873799	     -7.49999987	    -10.88293971	      3.72071136	      6.59076497	     56.73009342	      7.76869158	     65.22363058	    128.25834704	     95.07288926	     50.85743102	     15.45812298	     71.41418646	    116.16715076	     76.61181035
      3.51666670	      2.92374135	      2.07310274	     -1.23169912	      0.38853583	      0.89971804	      0.09868259	     11.40093703	      2.55720081	      2.45010466	     22.06360573	      0.38508256	     25.39815476	     -7.20947713	     -7.49999987	     38.26965442	     -3.89477005	      4.78508607	     18.92597461	      0.33032057	     -8.64555684	     -9.93986385	     -7.49999987	    -10.19111824	      3.40646175	      6.48214845	     55.68527978	      7.60806101	     64.26151829	    128.33386067	     95.33822278	     50.52776994	     14.91060412	     71.07867276	    116.29569423	     76.47117316
      3.53333330	      2.55440305	      2.38848630	     -1.43275317	      0.38957072	      0.90421107	      0.09869278	     10.67130511	      2.25554851	      2.73407873	     19.93939945	      0.34800817	     24.46975125	     -6.99836825	     -7.49999987	     37.44417203	     -3.51345960	      4.30209767	     17.78106682	      0.31033816	     -8.56275219	     -9.71220980	     -7.49999987	     -9.28781739	      2.96742421	      6.61081243	     54.59966600	      7.73002366	     64.30973629	    128.67081993	     95.33457994	     49.84875584	     14.52587747	     71.35461837	    116.34041150	     76.20003242
      3.55000000	      2.38187124	      2.67518359	     -1.36200718	      0.38959121	      0.90100622	      0.09887041	     10.12080620	      2.04433450	      2.85420524	     18.64923404	      0.32549054	     24.06717807	     -7.22043577	     -7.49999987	     36.89652149	     -3.17993022	      3.44419362	     17.14635784	      0.29926040	     -8.29176835	     -9.05222479	     -7.49999987	     -8.80375724	      2.53321434	      6.81229354	     54.10196381	      7.91885821	     63.89724400	    129.04987615	     94.13146496	     49.93100876	     14.44978050	     71.24436549	    116.36563908	     75.56546568
      3.56666670	      2.04488408	      2.82300350	     -1.26846656	      0.39089553	      0.90593862	      0.09914630	      9.98318911	      1.90738167	      2.86464945	     17.77009936	      0.31014674	     23.84435007	     -7.24164739	     -7.49999987	     36.54912412	     -2.87874451	      3.00459932	     16.74637728	      0.29227942	     -8.49162995	     -8.79815670	     -7.49999987	     -8.14204406	      2.25076674	      7.04580909	     53.53985838	      7.94583544	     63.64605919	    128.96043647	     94.33910402	     49.48621897	     14.27529820	     71.06751526	    116.34715239	     75.42453756
      3.58333330	      1.57791112	      2.78866116	     -1.09282117	      0.39151256	      0.90748092	      0.09830752	     10.13614289	      1.91788188	      2.81705109	     17.12485258	      0.29888506	     23.54190846	     -7.32906398	     -7.49999987	     36.48736649	     -2.75183834	      2.75852122	     16.42659625	      0.28669819	     -8.60163193	     -8.51880198	     -7.49999987	     -7.41620543	      2.19887549	      7.40424931	     52.96035585	      7.73433529	     63.33892715	    129.10348468	     94.03392480	     48.99184576	     14.40462307	     71.10218887	    116.15377541	     74.47391939
      3.60000000	      1.37444013	      2.75869269	     -0.84751041	      0.39248429	      0.90668941	      0.09855082	     10.02986434	      1.88181836	      2.68406533	     16.39435646	      0.28613550	     23.52259446	     -7.16589131	     -7.49999987	     36.22415292	     -2.54619476	      2.57814115	     16.02367809	      0.27966594	     -8.21246934	     -7.86230751	     -7.49999987	     -7.13981735	      2.19502501	      7.53149311	     52.87049215	      7.78207751	     63.04656508	    128.96470231	     92.77396598	     48.79030273	     14.49296487	     71.06336442	    116.28376294	     73.82783726
      3.61666670	      1.49878656	      2.72887130	     -0.63352219	      0.39736045	      0.90481068	      0.09502289	      9.38275998	      1.70395968	      2.39855327	     15.60340897	      0.27233086	     23.59729605	     -6.82886664	     -7.49999987	     35.53714363	     -2.19184331	      2.61032092	     15.97666776	      0.27884546	     -7.77041054	     -7.78260219	     -7.49999987	     -7.20920735	      2.24236371	      7.75625434	     53.12046320	      7.82752757	     62.40005963	    129.34067894	     93.28192719	     48.76882086	     15.18530518	     71.22446488	    116.22866849	     73.75353075
      3.63333330	      1.39847249	      2.66419219	     -0.63851059	      0.39753706	      0.90495454	      0.09531332	      9.28094820	      1.63013768	      2.26565089	     15.40951499	      0.26894677	     23.92721403	     -6.51078377	     -7.49999987	     35.15569811	     -1.99672752	      2.64416681	     16.06108582	      0.28031883	     -7.21665084	     -7.71961713	     -7.49999987	     -6.87912945	      2.33570684	      8.26353084	     53.11552358	      7.72551400	     61.80180544	    129.31235311	     92.69168471	     48.35284813	     15.53244920	     71.05521169	    116.26406219	     73.18144553
      3.65000000	      1.33079532	      2.64820293	     -0.69916801	      0.39686684	      0.90602950	      0.09511346	      9.34201141	      1.53079187	      2.27524616	     15.42312958	      0.26918439	     23.97973328	     -6.52274618	     -7.49999987	     34.72272818	     -1.72525503	      2.71978047	     16.35564704	      0.28545989	     -7.17067151	     -7.72731600	     -7.49999987	     -6.65595533	      2.37852474	      8.36227245	     53.14134111	      7.76254992	     61.77454005	    129.31999574	     92.70250219	     48.21602900	     15.60434984	     71.09432897	    116.32681043	     73.18470467
      3.66666670	      1.19865422	      2.57650440	     -0.67830322	      0.39717976	      0.90598332	      0.09526268	      9.40775371	      1.46237898	      1.99845773	     15.35553571	      0.26800466	     24.59062657	     -5.76972511	     -7.49999987	     34.64054560	     -1.49706528	      3.04261264	     17.22672873	      0.30066314	     -6.66920114	     -8.55098759	     -7.49999987	     -6.35876353	      2.41612868	      8.96447704	     52.86761778	      7.39700758	     61.05054329	    129.35424000	     92.10410004	     47.52294119	     15.94238061	     71.07641314	    116.53972108	     73.06232412
